<svg width="2427" height="577" viewBox="0 0 2427 577" fill="none" xmlns="http://www.w3.org/2000/svg">
<path fill-rule="evenodd" clip-rule="evenodd" d="M2354.17 72.2037C2331.27 49.2326 2304.06 31.0248 2274.09 18.632C2244.12 6.23921 2211.99 -0.0930165 2179.56 0.00103245H246.931C110.775 0.00103245 0 110.581 0 246.53V329.524C0 395.358 25.6801 457.276 72.3194 503.825C95.2099 526.796 122.425 545.005 152.394 557.398C182.362 569.791 214.489 576.122 246.918 576.027H2179.54C2211.97 576.121 2244.1 569.789 2274.07 557.396C2304.04 545.003 2331.26 526.796 2354.16 503.825C2377.15 481.005 2395.38 453.847 2407.79 423.926C2420.21 394.006 2426.56 361.918 2426.47 329.524V246.53C2426.56 214.133 2420.22 182.041 2407.8 152.116C2395.39 122.191 2377.16 95.0283 2354.17 72.2037ZM2398.02 329.576C2398.02 448.003 2301.33 544.368 2182.5 544.368H243.987C186.427 544.368 132.318 522.021 91.6055 481.452C50.8934 440.882 28.4816 386.954 28.4816 329.576V246.466C28.4816 189.1 50.9063 135.146 91.6055 94.5895C111.599 74.5692 135.357 58.7029 161.509 47.9048C187.662 37.1067 215.693 31.5902 243.987 31.6732H2182.49C2240.05 31.6732 2294.17 54.0201 2334.88 94.5895C2354.95 114.456 2370.86 138.115 2381.7 164.188C2392.53 190.262 2398.08 218.23 2398.01 246.466V329.576H2398.02Z" fill="black"/>
<path fill-rule="evenodd" clip-rule="evenodd" d="M645.713 184.47V131.112H570.929V184.47H645.713ZM645.751 405.747V218.97H570.903V405.747H645.751ZM432.853 302.443V130.801H507.909V405.981H440.22L314.906 217.621C304.854 203.587 294.128 210.28 293.467 222.964V405.968H218.411V130.801H300.172L418.794 310.471C423.463 317.138 432.178 315.815 432.853 302.443ZM709.55 219.073V405.63H784.191V292.365C784.191 225.74 877.495 227.076 877.495 295.024V405.63H952.136V269.72C952.136 237.737 914.809 207.076 874.836 207.076C844.176 207.076 796.201 224.391 784.204 237.724V219.073H709.55ZM1433.66 218.853V405.89H1508.75V292.327C1508.75 225.532 1602.6 226.868 1602.6 294.998V405.89H1677.68V269.617C1677.68 237.555 1640.13 206.83 1599.91 206.83C1569.08 206.83 1520.82 224.196 1508.75 237.568V218.866L1433.66 218.853ZM1021.11 405.981V218.879H966.118V197.492H1021.11V172.097H1096.26V197.492H1151.26V218.879H1096.26V405.981H1021.11ZM2245.79 143.732C2228.34 143.732 2214.33 157.506 2214.33 174.444C2214.33 191.655 2228.34 205.416 2245.79 205.416C2263.15 205.416 2277.15 191.655 2277.15 174.444C2277.15 157.493 2263.15 143.732 2245.79 143.732ZM2245.79 200.656C2242.36 200.669 2238.95 199.997 2235.78 198.682C2232.61 197.366 2229.73 195.432 2227.31 192.993C2224.89 190.553 2222.98 187.657 2221.69 184.473C2220.4 181.288 2219.76 177.879 2219.8 174.444C2219.8 160.178 2231.18 148.492 2245.79 148.492C2260.41 148.492 2271.68 160.178 2271.68 174.444C2271.68 188.971 2260.41 200.656 2245.79 200.656Z" fill="black"/>
<path fill-rule="evenodd" clip-rule="evenodd" d="M2258.59 188.62C2255.53 183.99 2252.46 179.425 2249.66 174.613C2254.63 173.575 2257.79 170.398 2257.79 165.508C2257.79 160.359 2254.17 157.35 2247.85 157.35H2234.43V191.811C2235.6 191.72 2236.77 191.552 2237.95 191.552C2239.11 191.552 2240.28 191.72 2241.45 191.811V175.651H2243.09L2252.47 191.811C2253.82 191.72 2255.16 191.552 2256.52 191.552C2257.87 191.552 2259.23 191.72 2260.57 191.811L2258.59 188.62ZM2241.46 174.068V160.567H2244.25C2247.14 160.567 2250.02 160.826 2250.02 166.844C2250.02 172.097 2247.34 174.496 2241.46 174.068ZM2116.63 207.712C2047.58 207.712 1991.59 253.365 1991.59 309.693C1991.59 366.021 2047.56 411.674 2116.63 411.674C2185.69 411.674 2241.67 366.008 2241.67 309.693C2241.67 253.378 2185.68 207.712 2116.63 207.712ZM2154.02 355.022C2154.02 375.657 2137.27 392.362 2116.63 392.362C2095.98 392.362 2079.26 375.657 2079.26 355.022V267.023C2079.26 246.401 2095.98 229.683 2116.63 229.683C2137.27 229.683 2154.02 246.401 2154.02 267.023V355.022ZM1393.69 311.664C1393.72 311.003 1393.72 310.342 1393.72 309.693C1393.72 253.469 1337.96 207.893 1269.21 207.893C1200.44 207.893 1144.69 253.469 1144.69 309.693C1144.69 365.917 1200.43 411.506 1269.21 411.506C1325.13 411.506 1372.49 381.325 1388.19 339.796L1306.55 339.692V355.022C1306.55 364.929 1302.61 374.43 1295.61 381.435C1288.6 388.44 1279.1 392.375 1269.2 392.375C1259.29 392.375 1249.79 388.44 1242.78 381.435C1235.78 374.43 1231.84 364.929 1231.84 355.022V311.678H1393.69V311.664ZM1231.89 267.049C1231.89 257.152 1235.83 247.661 1242.82 240.664C1249.82 233.666 1259.31 229.735 1269.21 229.735C1279.1 229.735 1288.6 233.666 1295.59 240.664C1302.59 247.661 1306.52 257.152 1306.52 267.049V283.715H1231.89V267.049ZM1877.08 130.736V232.303C1855.62 216.933 1827.45 210.928 1815.36 212.264C1796.68 214.339 1718.81 209.592 1718.81 309.81C1718.81 402.012 1767.09 412.712 1815.36 412.712C1838.19 412.712 1858.31 404.697 1877.08 392.674V406.02H1952.18V130.736H1877.08ZM1877.08 364.464C1827.43 408.562 1801.94 367.136 1801.94 335.062V286.957C1801.94 236.167 1856.93 232.16 1877.08 262.898V364.464Z" fill="black"/>
</svg>
